inDegrees=yes
name=ik_S50_A11_T02
DataType=double
version=3
OpenSimVersion=4.3-2021-08-27-4bc7ad9
endheader
time	pelvis_tilt	pelvis_list	pelvis_rotation	pelvis_tx	pelvis_ty	pelvis_tz	hip_flexion_r	hip_adduction_r	hip_rotation_r	knee_angle_r	knee_angle_r_beta	ankle_angle_r	subtalar_angle_r	mtp_angle_r	hip_flexion_l	hip_adduction_l	hip_rotation_l	knee_angle_l	knee_angle_l_beta	ankle_angle_l	subtalar_angle_l	mtp_angle_l	lumbar_extension	lumbar_bending	lumbar_rotation	arm_flex_r	arm_add_r	arm_rot_r	elbow_flex_r	pro_sup_r	wrist_flex_r	wrist_dev_r	arm_flex_l	arm_add_l	arm_rot_l	elbow_flex_l	pro_sup_l	wrist_flex_l	wrist_dev_l
10.61999999999986	9.928126456494622	-9.271408816041847	38.35161297323425	0	0.9399999999999999	0	30.89919025072371	-9.724294158658445	-8.990399872749988	33.53705701174957	0.5853320662840805	0	0	0	30.89919025072371	-9.724294158658445	-8.990399872749988	33.53705701174957	0.5853320662840805	0	0	0	0.7751532427457319	11.40556193376388	7.680421109910033	83.82483014107345	3.896495946361381	14.51493345776399	98.82264821865503	-9.980302348120729	0	0	4.792255037394908	-9.680524200050563	-10.00699480944822	5.854033608639343	126.7440359210547	0	0
10.63999999999986	9.937339312986593	-9.267189245645925	38.38683485451497	0	0.9399999999999999	0	30.90274297242095	-9.724525456396153	-8.990945723145515	33.54101654231108	0.5854011731292122	0	0	0	30.90274297242095	-9.724525456396153	-8.990945723145515	33.54101654231108	0.5854011731292122	0	0	0	0.7815542088526014	11.40188551742558	7.649018197325158	83.81082239065671	3.83134666132015	14.62259991884982	99.01795496644887	-9.980289740449603	0	0	4.774796358174291	-9.658589027997976	-10.04214477039216	5.835301879789298	126.7607422411882	0	0
10.65999999999986	9.945775559850711	-9.270059296791908	38.40750691121968	0	0.9399999999999999	0	30.90600606398024	-9.724737028954733	-8.991445796989327	33.54466464130012	0.5854648444680096	0	0	0	30.90600606398024	-9.724737028954733	-8.991445796989327	33.54466464130012	0.5854648444680096	0	0	0	0.7815138567987138	11.39406083589509	7.608689506361208	83.78537775507057	3.805269666146861	14.6740042368361	99.1465357978169	-9.980283450831543	0	0	4.740301007677132	-9.657522585569794	-10.08383429189747	5.82508127868174	126.7614864222488	0	0
10.67999999999986	9.961573266297664	-9.276209833729361	38.45423707310313	0	0.9399999999999999	0	30.9105911867586	-9.725034776265396	-8.992149232697496	33.54978175822178	0.5855541550065022	0	0	0	30.9105911867586	-9.725034776265396	-8.992149232697496	33.54978175822178	0.5855541550065022	0	0	0	0.7860449045457643	11.37661603251269	7.57567772159252	83.77592577926572	3.725191833059593	14.62745157284194	99.29425907139957	-9.980293253878868	0	0	4.697661396611526	-9.683991232609952	-10.11026105130125	5.841580197085309	126.8024401499135	0	0
10.69999999999986	9.968418487397809	-9.277127557046803	38.46591723450739	0	0.9399999999999999	0	30.91411456048275	-9.725255368693754	-8.992677321874961	33.55383469018705	0.5856248920136555	0	0	0	30.91411456048275	-9.725255368693754	-8.992677321874961	33.55383469018705	0.5856248920136555	0	0	0	0.7865319944890925	11.36987571704963	7.54572627201074	83.77508116166292	3.663787077707816	14.57201650310074	99.37194000044785	-9.980213403406065	0	0	4.666211167148742	-9.685989075148873	-10.14692014891081	5.83861247402679	126.8193924920001	0	0
10.71999999999986	9.965646151216953	-9.279431710189378	38.44587900382087	0	0.9399999999999999	0	30.91740029180514	-9.725461171723847	-8.993169969760121	33.55761141848208	0.585690808357357	0	0	0	30.91740029180514	-9.725461171723847	-8.993169969760121	33.55761141848208	0.585690808357357	0	0	0	0.7827055543702189	11.3658075575399	7.546792503302357	83.76942202116686	3.595339626969114	14.51495793113181	99.45724487648951	-9.980102000963127	0	0	4.659142319133344	-9.67307053538936	-10.1490627031937	5.834724377979501	126.8241486619726	0	0
10.73999999999986	9.974241480978243	-9.275600800323458	38.48962593169783	0	0.9399999999999999	0	30.92016842447087	-9.725636811096166	-8.993588491304719	33.56075805834925	0.5857457275834136	0	0	0	30.92016842447087	-9.725636811096166	-8.993588491304719	33.56075805834925	0.5857457275834136	0	0	0	0.7867257438650819	11.36354230195302	7.506652460196308	83.77297195384965	3.57314105323004	14.5127362236056	99.48349312769356	-9.980022370854453	0	0	4.660126218852636	-9.667530045381941	-10.14670612292199	5.827752600889896	126.8291581670012	0	0
10.75999999999986	9.970074009854907	-9.271798361491715	38.48688852938285	0	0.9399999999999999	0	30.92266259374274	-9.725793966357775	-8.993963933899009	33.56360895715618	0.5857954851542357	0	0	0	30.92266259374274	-9.725793966357775	-8.993963933899009	33.56360895715618	0.5857954851542357	0	0	0	0.7832270155719581	11.36751389299076	7.489902519686986	83.73393173558871	3.538933805049316	14.46509948923892	99.52515288632289	-9.980006901217962	0	0	4.657098392293373	-9.657961012527631	-10.13501674294795	5.822963194817993	126.8106691062784	0	0
10.77999999999986	9.984774256706014	-9.26209339320503	38.51497940337293	0	0.9399999999999999	0	30.92571547025137	-9.725987732684347	-8.994425657580663	33.56707623012807	0.5858560004836606	0	0	0	30.92571547025137	-9.725987732684347	-8.994425657580663	33.56707623012807	0.5858560004836606	0	0	0	0.7943039021470236	11.36676607025827	7.43879879594629	83.70934537667844	3.551239000111753	14.47202552708545	99.55664500465198	-9.980024528698529	0	0	4.637250163806908	-9.653454139382886	-10.15516308873464	5.819154031087605	126.795994650924	0	0
